<svg xmlns="http://www.w3.org/2000/svg" enable-background="new 0 0 512 512" viewBox="0 0 512 512"><linearGradient id="a" x1="256" x2="256" y1="3.578" y2="508.422" gradientTransform="matrix(1 0 0 -1 0 512)" gradientUnits="userSpaceOnUse"><stop offset="0" stop-color="#9796ef"/><stop offset="1" stop-color="#f9c5d4"/></linearGradient><path fill="url(#a)" d="M397.322,343.127c0,14.702-11.963,26.665-26.665,26.665s-26.665-11.963-26.665-26.665s11.963-26.665,26.665-26.665C385.36,316.463,397.322,328.426,397.322,343.127z M226.669,359.126c-8.822,0-15.999,7.177-15.999,15.999s7.177,15.999,15.999,15.999s15.999-7.177,15.999-15.999S235.491,359.126,226.669,359.126z M173.34,113.812c-8.822,0-15.999,7.177-15.999,15.999s7.177,15.999,15.999,15.999s15.999-7.177,15.999-15.999S182.162,113.812,173.34,113.812z M114.678,257.801c-14.702,0-26.665,11.963-26.665,26.665s11.963,26.665,26.665,26.665s26.665-11.963,26.665-26.665S129.38,257.801,114.678,257.801z M253.334,215.138c-20.584,0-37.33,16.746-37.33,37.33s16.746,37.33,37.33,37.33s37.33-16.746,37.33-37.33S273.918,215.138,253.334,215.138z M511.98,252.442c0,141.162-114.817,255.98-255.98,255.98c-141.162,0-255.98-114.818-255.98-255.98c0-118.551,80.314-220.837,195.345-248.728c2.346-0.533,4.8,0.534,5.919,2.613c12.238,21.987,38.126,32.217,61.329,25.438c3.209-0.885,6.655,1.437,6.773,4.96c2.451,79.994,93.181,119.023,153.108,74.128c2.987-2.182,7.294-0.756,8.319,2.773c6.206,21.184,29.4,31.978,48.903,24.478c2.56-0.96,5.44,0.159,6.666,2.666C503.341,175.754,511.98,213.351,511.98,252.442z M152.008,284.465c0-20.584-16.746-37.33-37.33-37.33s-37.33,16.746-37.33,37.33s16.746,37.33,37.33,37.33S152.008,305.05,152.008,284.465z M200.004,129.811c0-14.702-11.963-26.665-26.665-26.665s-26.665,11.963-26.665,26.665s11.963,26.665,26.665,26.665S200.004,144.513,200.004,129.811z M253.334,375.125c0-14.702-11.963-26.665-26.665-26.665s-26.665,11.963-26.665,26.665s11.963,26.665,26.665,26.665S253.334,389.827,253.334,375.125z M301.33,252.468c0-26.464-21.532-47.996-47.996-47.996s-47.996,21.532-47.996,47.996s21.532,47.996,47.996,47.996S301.33,278.932,301.33,252.468z M407.988,343.127c0-20.584-16.746-37.33-37.33-37.33s-37.33,16.746-37.33,37.33s16.746,37.33,37.33,37.33C391.242,380.458,407.988,363.712,407.988,343.127z M407.988,209.805c0-14.702-11.963-26.665-26.665-26.665s-26.665,11.963-26.665,26.665s11.963,26.665,26.665,26.665S407.988,224.507,407.988,209.805z M381.323,193.806c-8.822,0-15.999,7.177-15.999,15.999s7.177,15.999,15.999,15.999s15.999-7.177,15.999-15.999S390.146,193.806,381.323,193.806z"/></svg>