<svg xmlns="http://www.w3.org/2000/svg" viewBox="0 0 64 64"><g data-name="Layer 2"><path fill="#f0f0ff" d="M48,35.0052H16v15.18a9.9994,9.9994,0,0,0,7.3858,9.6583,32.5823,32.5823,0,0,0,17.2284,0A9.9994,9.9994,0,0,0,48,50.1854Z"/><path fill="#dcdcf9" d="M48,45.1844v5a9.998,9.998,0,0,1-7.39,9.6591,32.5335,32.5335,0,0,1-17.22,0A9.998,9.998,0,0,1,16,50.184v-5a9.996,9.996,0,0,0,5.57,8.9692,13.7989,13.7989,0,0,1-.57-3.97v-5c0,4.52,2.08,8.4893,5.08,9.6592.45.18.91.34,1.36.47A28.7632,28.7632,0,0,1,27,50.184v-5c0,4.52.95,8.4893,2.31,9.6592a4.0854,4.0854,0,0,0,2.69,1.16,4.0854,4.0854,0,0,0,2.69-1.16c1.36-1.17,2.31-5.14,2.31-9.6592v5a28.7632,28.7632,0,0,1-.44,5.13c.45-.13.91-.29,1.36-.47,3-1.17,5.08-5.14,5.08-9.6592v5a13.7989,13.7989,0,0,1-.57,3.97A9.996,9.996,0,0,0,48,45.1844Z"/><path fill="#8dc1f3" d="M45,25.0061l-.0252.0012A6.4959,6.4959,0,0,0,38.5,19.0066h-13a6.4976,6.4976,0,0,0-6.3214,5.0086c-.06-.0014-.1183-.0091-.1786-.0091a7.9994,7.9994,0,1,0,5.51,13.7891,7.9879,7.9879,0,0,0,14.68.6988A7.9965,7.9965,0,1,0,45,25.0061Z"/><path fill="#7eaada" d="M43.6226,21.5194A6.4731,6.4731,0,0,0,38.5,19.0066h-13a6.4565,6.4565,0,0,0-5.1417,2.5666A17.9349,17.9349,0,0,0,22.49,24.3223c2.8835,3.0479,6.4088,4.6751,9.4414,4.6786.0432.0007.2137-.0006.2568-.0019,3.0324-.049,6.5444-1.729,9.4033-4.82A18.1323,18.1323,0,0,0,43.6226,21.5194Z"/><path fill="#7eaada" d="M50.9082,27.6255a7.3334,7.3334,0,0,1-6.9915,9.5462c-2.1,0-2.9885-.8872-4.3253-2.3015-1.189,2.4451-4.69,4.1347-7.5914,4.1347-3.1491,0-6.8266-1.9885-7.8657-4.7753-1.3155,1.2522-2.0913,2.0255-4.051,2.0255A7.32,7.32,0,0,1,13.1428,26.57,7.9916,7.9916,0,0,0,24.51,37.7952a7.9879,7.9879,0,0,0,14.68.6988A7.9913,7.9913,0,0,0,50.9082,27.6255Z"/><circle cx="13" cy="25.006" r="2" fill="#f0f0ff"/><circle cx="51" cy="27.006" r="2" fill="#f0f0ff"/><circle cx="35" cy="35.005" r="2" fill="#f0f0ff"/><circle cx="27" cy="30.006" r="2" fill="#f0f0ff"/><path fill="#dcdcf9" d="M44.1729,4.9044c-2.7678-2.9257-7.8608-2.3641-12.19,1.0307-4.3557-3.33-9.4529-3.8149-12.197-.848C16.5892,8.5437,17.8,15.3649,22.49,20.3227c2.8835,3.0478,6.4088,4.6751,9.4414,4.6786.0432.0006.0851.0048.1284.0048s.0852-.0055.1284-.0068c3.0324-.0489,6.5445-1.7289,9.4033-4.82C46.2417,15.1517,47.3974,8.3128,44.1729,4.9044Z"/><path fill="#f0f0ff" d="M40.7892,5.5862c-2.034-2.15-5.7769-1.7373-8.9581.7575-3.201-2.447-6.9469-2.8036-8.9636-.6232-2.3495,2.54-1.46,7.5532,1.9869,11.1966a10.0517,10.0517,0,0,0,6.9385,3.4383c.0317,0,.0625.0036.0944.0036s.0626-.004.0943-.005a10.1313,10.1313,0,0,0,6.91-3.5421C42.31,13.117,43.1589,8.0911,40.7892,5.5862Z"/><path fill="#1b4a99" d="M54,27.0054a2.9984,2.9984,0,0,0-5.1229-2.1169,8.9063,8.9063,0,0,0-3.0265-.8426,7.4836,7.4836,0,0,0-2.5819-4.2924c4.1795-5.2722,4.9662-12.01,1.6307-15.5365-2.9678-3.1352-8.2021-2.9165-12.9238.4745-4.7471-3.3178-9.9819-3.4623-12.9238-.2831-3.2762,3.5426-2.4735,10.178,1.6514,15.3687a7.3686,7.3686,0,0,0-2.2764,3.2465,8.8352,8.8352,0,0,0-2.7617.6339A2.9917,2.9917,0,1,0,11.2606,27.44,8.9536,8.9536,0,0,0,15,40.0547V50.1854A11.0133,11.0133,0,0,0,23.126,60.81,34.0829,34.0829,0,0,0,31.87,61.9937c.0433,0,.0866.0063.13.0063s.0852-.0059.1279-.0062A34.0847,34.0847,0,0,0,40.874,60.81,11.0147,11.0147,0,0,0,49,50.1854v-9.13a8.952,8.952,0,0,0,4.111-11.9217A2.9905,2.9905,0,0,0,54,27.0054Zm-3-1a1,1,0,1,1-1,1A1.0006,1.0006,0,0,1,51,26.0056ZM20.52,5.7656a5.4174,5.4174,0,0,1,4.0943-1.6267,10.92,10.92,0,0,1,5.7316,1.876c-.409.37-.8019.75-1.1657,1.1431a18.6642,18.6642,0,0,0-3.2808,4.884,1,1,0,0,0,1.8184.8338,16.796,16.796,0,0,1,4.8828-6.1533c3.9629-3.1089,8.5264-3.5854,10.8457-1.1307,2.8652,3.0278,1.7031,9.2671-2.5889,13.909-2.5625,2.77-5.8095,4.4524-8.71,4.4993l-.2149.0009c-2.8735-.0029-6.1318-1.6345-8.7158-4.3655C18.8882,15.06,17.6787,8.8384,20.52,5.7656ZM13,24.0059a1,1,0,1,1-1,1A1.0009,1.0009,0,0,1,13,24.0059Zm4,26.18V40.7725a8.9715,8.9715,0,0,0,2,.2317,8.9837,8.9837,0,0,0,1-.0764v9.2576a13.2051,13.2051,0,0,0,2.7941,8.4121A9.0122,9.0122,0,0,1,17,50.1854Zm7.146-10.803A8.99,8.99,0,0,0,26,41.67v8.5154c0,3.0493.46,6.9106,1.686,9.1551-.4135-.1265-.8277-.2643-1.2436-.4269C23.8267,57.8883,22,54.2991,22,50.1854V40.47A8.9326,8.9326,0,0,0,24.146,39.3824Zm15.2866.6874A8.8939,8.8939,0,0,0,42,41.4925v8.6929c0,4.1137-1.8271,7.7029-4.4424,8.7272-.4157.1627-.83.3006-1.2431.4272C37.54,57.0955,38,53.2348,38,50.1854V41.7161A9.0022,9.0022,0,0,0,39.4326,40.07ZM36,50.1854c0,4.6839-1.01,8.0818-1.96,8.901a3.1647,3.1647,0,0,1-2.04.911h0a3.16,3.16,0,0,1-2.0387-.911C29.01,58.2672,28,54.8693,28,50.1854V43.0345a8.8414,8.8414,0,0,0,8,.0274Zm11,0a9.0118,9.0118,0,0,1-5.795,8.4127A13.2039,13.2039,0,0,0,44,50.1854V41.9437a9.1273,9.1273,0,0,0,1,.0614,8.9774,8.9774,0,0,0,2-.2318Zm5-17.18a7.0082,7.0082,0,0,1-7,7,6.914,6.914,0,0,1-4.6275-1.7629,8.9272,8.9272,0,0,0,.5738-4.2206,1,1,0,0,0-1.9883.2168,6.9806,6.9806,0,0,1-.6435,3.7815c-.0069.0128-.0171.0231-.0235.0363A6.9506,6.9506,0,0,1,32,42.0051a7.0339,7.0339,0,0,1-6.9419-7.9041,1,1,0,1,0-1.9834-.2558,8.9422,8.9422,0,0,0,.278,3.6305,6.9883,6.9883,0,0,1-10.0654-9.5,2.9891,2.9891,0,0,0,2.6093-2.23,7,7,0,0,1,3.1249-.738c.0141-.001.1216.0068.1411.0068.0081,0,.0154-.0036.0236-.0037a6.9323,6.9323,0,0,1,4.1888,1.53,1,1,0,0,0,1.251-1.56,8.9094,8.9094,0,0,0-4.088-1.84,5.458,5.458,0,0,1,1.4768-1.886c2.9173,2.9683,6.5964,4.7436,9.8939,4.7464.0142,0,.2768-.001.2954-.0019,3.2609-.0523,6.8542-1.8243,9.722-4.7437a5.4337,5.4337,0,0,1,2.0514,3.8288c.0008.0107.007.0194.0082.03.0083.13.0143.2594.0143.3918a5.4362,5.4362,0,0,1-1.2061,3.4369,1,1,0,0,0,1.5606,1.2518,7.4993,7.4993,0,0,0,1.5963-4.1122,6.9224,6.9224,0,0,1,2.0792.6267,2.9326,2.9326,0,0,0-.03.2965,3.0039,3.0039,0,0,0,3,3.0006,2.93,2.93,0,0,0,.2965-.03A6.9147,6.9147,0,0,1,52,33.0055Zm-17-1a3,3,0,1,0,3,3A3.0031,3.0031,0,0,0,35,32.0056Zm0,3.9994a1,1,0,1,1,1-1A1.0005,1.0005,0,0,1,35,36.005Zm-8-8.9986a3,3,0,1,0,3,3A3.0031,3.0031,0,0,0,27,27.0064Zm0,3.9994a1,1,0,1,1,1-1A1.0009,1.0009,0,0,1,27,31.0058Z"/></g></svg>