<svg xmlns="http://www.w3.org/2000/svg" enable-background="new 0 0 512 512" viewBox="0 0 512 512"><linearGradient id="a" x1="71.443" x2="440.534" y1="419.475" y2="50.385" gradientUnits="userSpaceOnUse"><stop offset="0" stop-color="#be53ff"/><stop offset="1" stop-color="#6be2dd"/></linearGradient><path fill="url(#a)" d="M404.951,42.518V23.476c0-11.566-9.41-20.976-20.976-20.976H128.026c-11.566,0-20.976,9.41-20.976,20.976v19.042c-11.472,0.493-20.672,9.905-20.672,21.497v28.734c0,11.692,9.353,21.187,20.965,21.526l5.977,77.12c-2.311,0.914-4.435,2.291-6.153,4.145c-3.164,3.414-4.773,8.039-4.418,12.691l14.367,185.063c0.592,7.542,5.953,13.46,13.02,15.016l4.569,58.948c1.809,23.687,21.847,42.241,45.62,42.241h151.302c23.773,0,43.812-18.554,45.62-42.238l4.577-58.954c7.063-1.558,12.421-7.474,13.012-15.013l14.414-185.059c0-0.004,0-0.004,0-0.008c0.355-4.644-1.254-9.265-4.41-12.676c-1.722-1.857-3.852-3.237-6.173-4.153l5.989-77.124c11.611-0.339,20.965-9.834,20.965-21.526V64.015C425.622,52.423,416.423,43.011,404.951,42.518z M115.049,23.476c0-7.156,5.82-12.976,12.976-12.976h255.949c7.156,0,12.976,5.82,12.976,12.976v18.949H115.049V23.476z M331.628,501.5H180.325c-19.617,0-36.152-15.308-37.644-34.855l-4.489-57.901h235.575l-4.496,57.905C367.779,486.192,351.245,501.5,331.628,501.5z M398.97,200.989c1.676,1.805,2.492,4.156,2.305,6.621L386.861,392.67c-0.359,4.601-4.109,8.074-8.719,8.074H133.811c-4.609,0-8.359-3.473-8.719-8.07l-14.367-185.056c-0.188-2.473,0.633-4.828,2.309-6.641c1.676-1.809,3.953-2.805,6.41-2.805h273.066C394.994,198.173,397.291,199.173,398.97,200.989z M115.369,114.338h281.257l-5.889,75.835h-269.49L115.369,114.338z M417.622,92.749c0,7.492-6.098,13.59-13.59,13.59H107.967c-7.492,0-13.59-6.098-13.59-13.59V64.015c0-7.492,6.098-13.59,13.59-13.59h296.065c7.492,0,13.59,6.098,13.59,13.59V92.749z M330.024,303.588c-0.026-0.095-0.038-0.188-0.07-0.281c-0.027-0.085-0.037-0.172-0.064-0.257c-5.934-18.148-25.791-29.08-49.757-29.863c-2.402-23.226-14.529-45.99-36.62-50.132c-31.153-5.901-55.488,27.965-61.448,59.487c-5.222,27.619,1.895,53.568,16.486,67.577c11.984,26.519,49.926,31.465,80.27,21.535C315.185,359.76,337.996,329.328,330.024,303.588z M321.795,304.266c-11.074,19.653-33.31,18.009-56.85,16.233c-21.973-1.676-46.509-3.529-61.606,14.288c0.25-19.421,19.367-40.16,47.294-49.299C277.168,276.807,312.603,280.226,321.795,304.266z M272.127,273.319c-7.798,0.467-15.88,1.917-23.978,4.567c-2.022,0.662-3.986,1.402-5.922,2.174c8.739-14.617,14.916-29.654,9.244-45.423C264.335,242.444,270.448,258.409,272.127,273.319z M189.923,284.027c4.951-26.173,24.828-56.893,50.747-53.304c11.588,18.687,0.348,36.923-12.187,56.131c-19.366,11.636-31.832,28.93-33.009,45.912C188.891,319.974,186.438,302.468,189.923,284.027z M276.336,364.053c-24.716,8.08-60.997,5.959-70.892-18.181c11.744-20.916,34.645-19.238,58.897-17.397c22.152,1.688,44.934,3.372,59.244-12.869C322.796,334.777,303.856,355.047,276.336,364.053z"/></svg>