<svg xmlns="http://www.w3.org/2000/svg" xmlns:xlink="http://www.w3.org/1999/xlink" data-name="Layer 1" viewBox="0 0 512 512"><defs><linearGradient id="a" x1="256" x2="256" y1="20" y2="494.046" gradientUnits="userSpaceOnUse"><stop offset="0" stop-color="#00efd1"/><stop offset="1" stop-color="#00acea"/></linearGradient><linearGradient id="b" x1="255" x2="255" y1="20" y2="494.046" xlink:href="#a"/><linearGradient id="c" x1="204" x2="204" y1="20" y2="494.046" xlink:href="#a"/><linearGradient id="d" x1="306" x2="306" y1="20" y2="494.046" xlink:href="#a"/></defs><path fill="url(#a)" d="M329,9H183.005a40.7,40.7,0,0,0-41,40.733V388.166A7.712,7.712,0,0,0,149.825,396H219v70.691a37,37,0,0,0,74,0V396h69.175A7.712,7.712,0,0,0,370,388.166V49.733A40.7,40.7,0,0,0,329,9ZM277,466.691a21,21,0,0,1-42,0V396h42ZM354,380H158V49.733a24.681,24.681,0,0,1,25-24.733H329a24.681,24.681,0,0,1,25,24.733Z"/><path fill="url(#b)" d="M255,85a8,8,0,0,0-8,8V326a8,8,0,0,0,16,0V93A8,8,0,0,0,255,85Z"/><path fill="url(#c)" d="M204,85a8,8,0,0,0-8,8V326a8,8,0,0,0,16,0V93A8,8,0,0,0,204,85Z"/><path fill="url(#d)" d="M306,85a8,8,0,0,0-8,8V326a8,8,0,0,0,16,0V93A8,8,0,0,0,306,85Z"/></svg>